<svg width="162" height="161" viewBox="0 0 162 161" xmlns="http://www.w3.org/2000/svg"><title>Combined Shape</title><path d="M127.3 147.1a80.6 80.6 0 0 1-31.4 13.2l.1-1.8a15.5 15.5 0 1 0-31 1.5 80.6 80.6 0 0 1-30.8-13.3l.7-.7a15.5 15.5 0 1 0-22-21.8C7 115.2 3 105 1.1 94A15.5 15.5 0 0 0 2 63a80.6 80.6 0 0 1 12.6-28.7 15.5 15.5 0 0 0 22-21.3A80.5 80.5 0 0 1 65.2 1.2 15.5 15.5 0 0 0 95.8 1a81.5 81.5 0 0 1 29 11.4 15.5 15.5 0 0 0 22.3 21.3 80.6 80.6 0 0 1 13 29.3 15.5 15.5 0 1 0 .9 31 80.5 80.5 0 0 1-12.1 31l-.9-.9a15.5 15.5 0 1 0-20.7 23zm-46.2-32.5a34 34 0 1 0 0-68 34 34 0 0 0 0 68z" stroke="#979797" fill="#D8D8D8" fill-rule="evenodd"/></svg>